<svg width="159" height="52" viewBox="0 0 159 52" fill="none" xmlns="http://www.w3.org/2000/svg">
<path d="M5.87683 32.0002H4.57341C2.05804 32.0002 0 29.9343 0 27.4093V11.6628C3.24712 11.6628 5.87683 14.3026 5.87683 17.562V32.0002Z" fill="#080808"/>
<path d="M35.9699 37.8993H34.6665V17.562H40.5433V33.3085C40.5433 35.8564 38.4853 37.8993 35.9699 37.8993Z" fill="#080808"/>
<path d="M0 27.4093V26.1239L11.6963 26.1239C14.9434 26.1239 17.5125 28.7636 17.5125 32.0231H4.57341C2.05804 32.0002 0 29.9572 0 27.4093Z" fill="#080808"/>
<path d="M17.5028 32.0002H37.763V33.3085C37.763 35.8335 37.1562 37.8994 34.6408 37.8994H23.3567C20.1325 37.8994 17.5028 35.2596 17.5028 32.0002Z" fill="#080808"/>
<path d="M11.6864 11.6628H35.9697C38.4851 11.6628 40.5431 13.7287 40.5431 16.2537V17.562H17.5633C14.3161 17.562 11.6864 14.9223 11.6864 11.6628Z" fill="#080808"/>
<path d="M52.5687 34.6324H64.6689V31.2556H56.3676V17.4463C56.3676 16.0591 55.243 14.9345 53.8558 14.9345H52.5687V34.6324Z" fill="#080808"/>
<path d="M70.1445 41.386L79.5432 20.9846H75.6881L72.0017 29.1733L68.0059 20.9846H63.9819L70.0882 33.2536L66.3175 41.386H70.1445Z" fill="#080808"/>
<path d="M95.4491 20.9846H90.2995L85.6001 25.4025V17.0453C85.6001 15.7241 84.5291 14.6531 83.2079 14.6531H81.9419V34.6324H85.6001V28.723L91.3688 34.6324H96.2933L88.7799 27.1191L95.4491 20.9846Z" fill="#080808"/>
<path d="M107.39 29.8486C106.686 30.8617 105.476 31.537 104.097 31.537C102.043 31.537 100.496 29.9612 100.496 27.8226C100.496 25.8528 101.874 24.08 104.013 24.08C105.42 24.08 106.63 24.7553 107.39 25.7684V29.8486ZM111.048 34.6324V17.0453C111.048 15.7241 109.977 14.6531 108.656 14.6531H107.39V21.9695C106.321 21.1253 105.026 20.7032 103.535 20.7032C99.8202 20.7032 96.8374 23.7986 96.8374 27.8226C96.8374 29.6798 97.5127 31.3682 98.5821 32.6064C99.7921 34.0133 101.706 34.9138 103.732 34.9138C105.111 34.9138 106.405 34.4917 107.531 33.535V34.6324H111.048Z" fill="#080808"/>
<path d="M124.702 29.8486C123.999 30.8617 122.789 31.537 121.41 31.537C119.356 31.537 117.808 29.9612 117.808 27.8226C117.808 25.8528 119.187 24.08 121.326 24.08C122.733 24.08 123.943 24.7553 124.702 25.7684V29.8486ZM128.361 20.9846H124.843V22.082C123.774 21.2097 122.395 20.7032 120.847 20.7032C117.133 20.7032 114.15 23.7986 114.15 27.8226C114.15 29.6798 114.825 31.3682 115.895 32.6064C117.105 34.0133 119.018 34.9138 121.044 34.9138C122.423 34.9138 123.718 34.4917 124.843 33.535V34.6324H128.361V20.9846Z" fill="#080808"/>
<path d="M142.296 31.537C142.043 31.5933 141.34 31.6777 140.805 31.6777C139.905 31.6777 139.314 31.4245 138.948 31.0024C138.638 30.6366 138.498 30.13 138.498 29.2858V24.08H143V20.9846H138.498V19.5779C138.498 18.2567 137.427 17.1857 136.105 17.1857H134.839V20.9846H131.041V24.08H134.839V28.8637C134.839 30.8054 135.149 32.0154 135.852 32.944C136.781 34.1822 138.385 34.9138 140.58 34.9138C141.283 34.9138 142.381 34.8013 142.859 34.6324L142.296 31.537Z" fill="#080808"/>
</svg>
